<svg width="910" height="225" viewBox="0 0 910 225" fill="none" xmlns="http://www.w3.org/2000/svg">
<path fill-rule="evenodd" clip-rule="evenodd" d="M460.93 224.618L458.925 224.813C458.605 224.844 458.284 224.867 457.964 224.883L457.866 222.885C458.155 222.871 458.444 222.85 458.732 222.822L460.737 222.628L460.93 224.618ZM456.036 224.884L456.132 222.886C455.843 222.872 455.555 222.852 455.266 222.824L453.28 222.633L453.089 224.623L455.075 224.815C455.395 224.845 455.715 224.869 456.036 224.884ZM449.116 224.241L449.307 222.25L445.335 221.868L445.143 223.858L449.116 224.241ZM441.171 223.476L441.362 221.485L437.39 221.103L437.198 223.093L441.171 223.476ZM433.225 222.711L433.417 220.72L429.444 220.338L429.253 222.328L433.225 222.711ZM425.28 221.946L425.472 219.955L421.499 219.573L421.307 221.563L425.28 221.946ZM417.335 221.181L417.526 219.19L413.554 218.808L413.362 220.799L417.335 221.181ZM409.389 220.416L409.581 218.425L405.608 218.043L405.417 220.034L409.389 220.416ZM401.444 219.651L401.636 217.66L397.663 217.278L397.471 219.269L401.444 219.651ZM393.499 218.886L393.69 216.895L389.718 216.513L389.526 218.504L393.499 218.886ZM385.553 218.121L385.745 216.13L381.772 215.748L381.581 217.739L385.553 218.121ZM377.608 217.356L377.8 215.365L373.827 214.983L373.635 216.974L377.608 217.356ZM369.663 216.591L369.854 214.6L365.882 214.218L365.69 216.209L369.663 216.591ZM361.718 215.826L361.909 213.835L357.937 213.453L357.745 215.444L361.718 215.826ZM353.772 215.061L353.964 213.07L349.991 212.688L349.8 214.679L353.772 215.061ZM345.827 214.296L346.019 212.305L342.046 211.923L341.854 213.914L345.827 214.296ZM337.882 213.531L338.073 211.54L334.101 211.158L333.909 213.149L337.882 213.531ZM329.936 212.766L330.128 210.775L326.155 210.393L325.964 212.384L329.936 212.766ZM321.991 212.001L322.183 210.011L318.21 209.628L318.018 211.619L321.991 212.001ZM314.046 211.236L314.237 209.246L310.265 208.863L310.073 210.854L314.046 211.236ZM306.1 210.471L306.292 208.481L302.319 208.098L302.128 210.089L306.1 210.471ZM298.155 209.706L298.347 207.716L294.374 207.333L294.182 209.324L298.155 209.706ZM290.21 208.941L290.401 206.951L286.429 206.568L286.237 208.559L290.21 208.941ZM282.264 208.176L282.456 206.186L278.483 205.803L278.292 207.794L282.264 208.176ZM274.319 207.411L274.511 205.421L270.538 205.038L270.346 207.029L274.319 207.411ZM266.374 206.646L266.565 204.656L262.593 204.273L262.401 206.264L266.374 206.646ZM258.429 205.882L258.62 203.891L254.648 203.508L254.456 205.499L258.429 205.882ZM250.483 205.117L250.675 203.126L246.702 202.743L246.511 204.734L250.483 205.117ZM242.538 204.352L242.73 202.361L238.757 201.978L238.565 203.969L242.538 204.352ZM234.593 203.587L234.784 201.596L230.812 201.213L230.62 203.204L234.593 203.587ZM226.647 202.822L226.839 200.831L222.866 200.448L222.675 202.439L226.647 202.822ZM218.702 202.057L218.894 200.066L214.921 199.683L214.729 201.674L218.702 202.057ZM210.757 201.292L210.948 199.301L206.976 198.918L206.784 200.909L210.757 201.292ZM202.811 200.527L203.003 198.536L199.03 198.153L198.839 200.144L202.811 200.527ZM194.866 199.762L195.058 197.771L191.085 197.388L190.893 199.379L194.866 199.762ZM186.921 198.997L187.112 197.006L183.14 196.623L182.948 198.614L186.921 198.997ZM178.975 198.232L179.167 196.241L175.194 195.858L175.003 197.849L178.975 198.232ZM171.03 197.467L171.222 195.476L167.249 195.094L167.057 197.084L171.03 197.467ZM163.085 196.702L163.276 194.711L159.304 194.329L159.112 196.319L163.085 196.702ZM155.139 195.937L155.331 193.946L151.358 193.564L151.167 195.554L155.139 195.937ZM147.194 195.172L147.386 193.181L143.413 192.799L143.221 194.789L147.194 195.172ZM139.249 194.407L139.44 192.416L135.468 192.034L135.276 194.024L139.249 194.407ZM131.303 193.642L131.495 191.651L127.522 191.269L127.331 193.259L131.303 193.642ZM123.358 192.877L123.55 190.886L119.577 190.504L119.386 192.494L123.358 192.877ZM115.413 192.112L115.605 190.121L111.632 189.739L111.44 191.729L115.413 192.112ZM107.468 191.347L107.659 189.356L103.687 188.974L103.495 190.964L107.468 191.347ZM99.5222 190.582L99.7139 188.591L95.7412 188.209L95.5496 190.2L99.5222 190.582ZM91.5769 189.817L91.7686 187.826L87.7959 187.444L87.6042 189.435L91.5769 189.817ZM83.6316 189.052L83.8233 187.061L79.8506 186.679L79.6589 188.67L83.6316 189.052ZM75.6863 188.287L75.8779 186.296L71.9053 185.914L71.7136 187.905L75.6863 188.287ZM67.741 187.522L67.9326 185.531L63.96 185.149L63.7683 187.14L67.741 187.522ZM59.7956 186.757L59.9873 184.766L56.0147 184.384L55.823 186.375L59.7956 186.757ZM51.8503 185.992L52.042 184.001L48.0693 183.619L47.8777 185.61L51.8503 185.992ZM43.905 185.227L44.0967 183.236L40.124 182.854L39.9323 184.845L43.905 185.227ZM35.9597 184.462L36.1514 182.471L32.1787 182.089L31.9871 184.08L35.9597 184.462ZM28.0144 183.697L28.2061 181.706L24.2334 181.324L24.0417 183.315L28.0144 183.697ZM20.0691 182.932L20.2607 180.941L18.2749 180.75C17.7182 180.697 17.1698 180.618 16.6308 180.516L16.2584 182.481C16.8571 182.594 17.4658 182.682 18.0833 182.741L20.0691 182.932ZM12.7193 181.465L13.4467 179.602C12.4083 179.196 11.4183 178.698 10.4863 178.117L9.42815 179.814C10.464 180.46 11.5646 181.014 12.7193 181.465ZM6.49614 177.586L7.84712 176.112C7.03059 175.364 6.2841 174.542 5.6178 173.657L4.02037 174.861C4.76034 175.843 5.58933 176.756 6.49614 177.586ZM2.08431 171.729L3.87508 170.838C3.38599 169.855 2.98465 168.822 2.68057 167.749L0.756417 168.295C1.09454 169.487 1.54075 170.636 2.08431 171.729ZM0.0839495 164.675L2.07561 164.492C2.02558 163.946 2 163.392 2 162.833V160.849H0V162.833C0 163.453 0.028376 164.068 0.0839495 164.675ZM0 156.882H2V152.914H0V156.882ZM0 148.947H2V144.979H0V148.947ZM0 141.011H2V137.044H0V141.011ZM0 133.076H2V129.109H0V133.076ZM0 125.141H2V121.173H0V125.141ZM0 117.206H2V113.238H0V117.206ZM0 109.271H2V105.303H0V109.271ZM0 101.336H2V97.3679H0V101.336ZM0 93.4003H2V89.4328H0V93.4003ZM0 85.4652H2V81.4976H0V85.4652ZM0 77.53H2V73.5624H0V77.53ZM0 69.5948H2V65.6272H0V69.5948ZM0 61.6596H2V57.692H0V61.6596ZM0 53.7244H2V49.7569H0V53.7244ZM0 45.7893H2V41.8217H0V45.7893ZM0 37.8541H2V33.8865H0V37.8541ZM0 29.9189H2V25.9513H0V29.9189ZM0 21.9837H2V20C2 19.4031 2.02899 18.8136 2.08552 18.2326L0.0949265 18.0389C0.032134 18.6841 0 19.3383 0 20V21.9837ZM0.856265 14.1923L2.77035 14.7722C3.11491 13.635 3.56918 12.5451 4.12105 11.5147L2.35802 10.5704C1.74463 11.7156 1.23948 12.9275 0.856265 14.1923ZM4.5392 7.31194L6.08451 8.58159C6.8334 7.67011 7.67011 6.8334 8.58159 6.08451L7.31194 4.5392C6.29981 5.37078 5.37078 6.29981 4.5392 7.31194ZM10.5704 2.35802L11.5147 4.12105C12.5451 3.56918 13.635 3.11491 14.7723 2.77034L14.1923 0.856264C12.9275 1.23948 11.7156 1.74463 10.5704 2.35802ZM18.0389 0.0949264L18.2326 2.08552C18.8136 2.02899 19.4031 2 20 2H21.9954V0H20C19.3383 0 18.6841 0.0321339 18.0389 0.0949264ZM25.9862 0V2H29.9771V0H25.9862ZM33.9679 0V2H37.9587V0H33.9679ZM41.9495 0V2H45.9404V0H41.9495ZM49.9312 0V2H53.922V0H49.9312ZM57.9128 0V2H61.9037V0H57.9128ZM65.8945 0V2H69.8853V0H65.8945ZM73.8762 0V2H77.867V0H73.8762ZM81.8578 0V2H85.8486V0H81.8578ZM89.8394 0V2H93.8303V0H89.8394ZM97.8211 0V2H101.812V0H97.8211ZM105.803 0V2H109.794V0H105.803ZM113.784 0V2H117.775V0H113.784ZM121.766 0V2H125.757V0H121.766ZM129.748 0V2H133.739V0H129.748ZM137.729 0V2H141.72V0H137.729ZM145.711 0V2H149.702V0H145.711ZM153.693 0V2H157.684V0H153.693ZM161.674 0V2H165.665V0H161.674ZM169.656 0V2H173.647V0H169.656ZM177.638 0V2H181.629V0H177.638ZM185.619 0V2H189.61V0H185.619ZM193.601 0V2H197.592V0H193.601ZM201.583 0V2H205.574V0H201.583ZM209.564 0V2H213.555V0H209.564ZM217.546 0V2H221.537V0H217.546ZM225.528 0V2H229.518V0H225.528ZM233.509 0V2H237.5V0H233.509ZM241.491 0V2H245.482V0H241.491ZM249.473 0V2H253.463V0H249.473ZM257.454 0V2H261.445V0H257.454ZM265.436 0V2H269.427V0H265.436ZM273.418 0V2H277.408V0H273.418ZM281.399 0V2H285.39V0H281.399ZM289.381 0V2H293.372V0H289.381ZM297.362 0V2H301.353V0H297.362ZM305.344 0V2H309.335V0H305.344ZM313.326 0V2H317.317V0H313.326ZM321.307 0V2H325.298V0H321.307ZM329.289 0V2H333.28V0H329.289ZM337.271 0V2H341.261V0H337.271ZM345.252 0V2H349.243V0H345.252ZM353.234 0V2H357.225V0H353.234ZM361.216 0V2H365.206V0H361.216ZM369.197 0V2H373.188V0H369.197ZM377.179 0V2H381.17V0H377.179ZM385.16 0V2H389.151V0H385.16ZM393.142 0V2H397.133V0H393.142ZM401.124 0V2H405.114V0H401.124ZM409.105 0V2H413.096V0H409.105ZM417.087 0V2H421.078V0H417.087ZM425.069 0V2H429.059V0H425.069ZM433.05 0V2H437.041V0H433.05ZM441.032 0V2H445.023V0H441.032ZM449.013 0V2H453.004V0H449.013ZM456.995 0H460.986V2H456.995V0ZM464.977 0V2H468.967V0H464.977ZM472.958 0V2H476.949V0H472.958ZM480.94 0V2H484.931V0H480.94ZM488.922 0V2H492.912V0H488.922ZM496.903 0V2H500.894V0H496.903ZM504.885 0V2H508.876V0H504.885ZM512.866 0V2H516.857V0H512.866ZM520.848 0V2H524.839V0H520.848ZM528.83 0V2H532.821V0H528.83ZM536.811 0V2H540.802V0H536.811ZM544.793 0V2H548.784V0H544.793ZM552.775 0V2H556.766V0H552.775ZM560.756 0V2H564.747V0H560.756ZM568.738 0V2H572.729V0H568.738ZM576.72 0V2H580.711V0H576.72ZM584.702 0V2H588.692V0H584.702ZM592.683 0V2H596.674V0H592.683ZM600.665 0V2H604.656V0H600.665ZM608.647 0V2H612.637V0H608.647ZM616.628 0V2H620.619V0H616.628ZM624.61 0V2H628.601V0H624.61ZM632.592 0V2H636.583V0H632.592ZM640.573 0V2H644.564V0H640.573ZM648.555 0V2H652.546V0H648.555ZM656.537 0V2H660.528V0H656.537ZM664.518 0V2H668.509V0H664.518ZM672.5 0V2H676.491V0H672.5ZM680.482 0V2H684.473V0H680.482ZM688.464 0V2H692.454V0H688.464ZM696.445 0V2H700.436V0H696.445ZM704.427 0V2H708.418V0H704.427ZM712.409 0V2H716.399V0H712.409ZM720.39 0V2H724.381V0H720.39ZM728.372 0V2H732.363V0H728.372ZM736.354 0V2H740.344V0H736.354ZM744.335 0V2H748.326V0H744.335ZM752.317 0V2H756.308V0H752.317ZM760.299 0V2H764.29V0H760.299ZM768.28 0V2H772.271V0H768.28ZM776.262 0V2H780.253V0H776.262ZM784.244 0V2H788.235V0H784.244ZM792.225 0V2H796.216V0H792.225ZM800.207 0V2H804.198V0H800.207ZM808.189 0V2H812.18V0H808.189ZM816.171 0V2H820.161V0H816.171ZM824.152 0V2H828.143V0H824.152ZM832.134 0V2H836.125V0H832.134ZM840.116 0V2H844.106V0H840.116ZM848.097 0V2H852.088V0H848.097ZM856.079 0V2H860.07V0H856.079ZM864.061 0V2H868.052V0H864.061ZM872.042 0V2H876.033V0H872.042ZM880.024 0V2H884.015V0H880.024ZM888.006 0V2H890C890.597 2 891.186 2.02899 891.767 2.08552L891.961 0.0949282C891.316 0.0321345 890.662 0 890 0H888.006ZM895.808 0.856259L895.228 2.77034C896.365 3.11491 897.455 3.56918 898.485 4.12105L899.43 2.35802C898.284 1.74463 897.073 1.23948 895.808 0.856259ZM902.688 4.53919L901.418 6.08451C902.33 6.8334 903.167 7.67011 903.915 8.58159L905.461 7.31194C904.629 6.29981 903.7 5.37078 902.688 4.53919ZM907.642 10.5704L905.879 11.5147C906.431 12.5451 906.885 13.635 907.23 14.7723L909.144 14.1923C908.76 12.9275 908.255 11.7156 907.642 10.5704ZM909.905 18.0389L907.914 18.2326C907.971 18.8136 908 19.4031 908 20V21.984H910V20C910 19.3383 909.968 18.6841 909.905 18.0389ZM910 25.952H908V29.92H910V25.952ZM910 33.888H908V37.8561H910V33.888ZM910 41.8241H908V45.7921H910V41.8241ZM910 49.7601H908V53.7281H910V49.7601ZM910 57.6961H908V61.6641H910V57.6961ZM910 65.6322H908V69.6002H910V65.6322ZM910 73.5682H908V77.5362H910V73.5682ZM910 81.5042H908V85.4722H910V81.5042ZM910 89.4402H908V93.4082H910V89.4402ZM910 97.3763H908V101.344H910V97.3763ZM910 105.312H908V109.28H910V105.312ZM910 113.248H908V117.216H910V113.248ZM910 121.184H908V125.152H910V121.184ZM910 129.12H908V133.088H910V129.12ZM910 137.056H908V141.024H910V137.056ZM910 144.992H908V148.96H910V144.992ZM910 152.928H908V156.896H910V152.928ZM910 160.864H908V162.848C908 163.407 907.974 163.961 907.924 164.507L909.916 164.689C909.972 164.082 910 163.468 910 162.848V160.864ZM909.244 168.307L907.32 167.762C907.016 168.834 906.616 169.866 906.127 170.849L907.918 171.74C908.461 170.647 908.907 169.499 909.244 168.307ZM905.984 174.87L904.386 173.668C903.721 174.552 902.975 175.373 902.159 176.121L903.511 177.595C904.417 176.765 905.245 175.852 905.984 174.87ZM900.582 179.823L899.523 178.126C898.591 178.708 897.602 179.207 896.565 179.613L897.294 181.475C898.447 181.024 899.547 180.469 900.582 179.823ZM893.757 182.493L893.383 180.529C892.845 180.631 892.297 180.71 891.74 180.764L889.735 180.959L889.929 182.95L891.934 182.755C892.551 182.695 893.159 182.607 893.757 182.493ZM885.919 183.339L885.726 181.348L881.717 181.738L881.91 183.728L885.919 183.339ZM877.901 184.118L877.707 182.127L873.698 182.517L873.891 184.507L877.901 184.118ZM869.882 184.897L869.689 182.906L865.679 183.295L865.873 185.286L869.882 184.897ZM861.863 185.676L861.67 183.685L857.661 184.074L857.854 186.065L861.863 185.676ZM853.845 186.454L853.651 184.464L849.642 184.853L849.835 186.844L853.845 186.454ZM845.826 187.233L845.633 185.243L841.623 185.632L841.817 187.623L845.826 187.233ZM837.807 188.012L837.614 186.021L833.605 186.411L833.798 188.402L837.807 188.012ZM829.789 188.791L829.595 186.8L825.586 187.19L825.779 189.18L829.789 188.791ZM821.77 189.57L821.577 187.579L817.567 187.969L817.761 189.959L821.77 189.57ZM813.751 190.349L813.558 188.358L809.549 188.747L809.742 190.738L813.751 190.349ZM805.733 191.128L805.539 189.137L801.53 189.526L801.723 191.517L805.733 191.128ZM797.714 191.906L797.521 189.916L793.511 190.305L793.705 192.296L797.714 191.906ZM789.695 192.685L789.502 190.695L785.493 191.084L785.686 193.075L789.695 192.685ZM781.677 193.464L781.483 191.473L777.474 191.863L777.667 193.854L781.677 193.464ZM773.658 194.243L773.465 192.252L769.455 192.642L769.649 194.632L773.658 194.243ZM765.639 195.022L765.446 193.031L761.437 193.421L761.63 195.411L765.639 195.022ZM757.621 195.801L757.427 193.81L753.418 194.199L753.611 196.19L757.621 195.801ZM749.602 196.579L749.409 194.589L745.399 194.978L745.593 196.969L749.602 196.579ZM741.583 197.358L741.39 195.368L737.381 195.757L737.574 197.748L741.583 197.358ZM733.565 198.137L733.371 196.147L729.362 196.536L729.555 198.527L733.565 198.137ZM725.546 198.916L725.353 196.925L721.343 197.315L721.537 199.305L725.546 198.916ZM717.527 199.695L717.334 197.704L713.325 198.094L713.518 200.084L717.527 199.695ZM709.509 200.474L709.315 198.483L705.306 198.873L705.499 200.863L709.509 200.474ZM701.49 201.253L701.297 199.262L697.287 199.651L697.481 201.642L701.49 201.253ZM693.471 202.031L693.278 200.041L689.269 200.43L689.462 202.421L693.471 202.031ZM685.453 202.81L685.259 200.82L681.25 201.209L681.443 203.2L685.453 202.81ZM677.434 203.589L677.241 201.599L673.231 201.988L673.425 203.979L677.434 203.589ZM669.415 204.368L669.222 202.377L665.213 202.767L665.406 204.757L669.415 204.368ZM661.397 205.147L661.203 203.156L657.194 203.546L657.387 205.536L661.397 205.147ZM653.378 205.926L653.185 203.935L649.175 204.325L649.369 206.315L653.378 205.926ZM645.359 206.705L645.166 204.714L641.157 205.103L641.35 207.094L645.359 206.705ZM637.341 207.483L637.147 205.493L633.138 205.882L633.331 207.873L637.341 207.483ZM629.322 208.262L629.129 206.272L625.119 206.661L625.313 208.652L629.322 208.262ZM621.303 209.041L621.11 207.051L617.101 207.44L617.294 209.431L621.303 209.041ZM613.285 209.82L613.091 207.829L609.082 208.219L609.276 210.209L613.285 209.82ZM605.266 210.599L605.073 208.608L601.063 208.998L601.257 210.988L605.266 210.599ZM597.247 211.378L597.054 209.387L593.045 209.777L593.238 211.767L597.247 211.378ZM589.229 212.157L589.035 210.166L585.026 210.555L585.219 212.546L589.229 212.157ZM581.21 212.935L581.017 210.945L577.008 211.334L577.201 213.325L581.21 212.935ZM573.192 213.714L572.998 211.724L568.989 212.113L569.182 214.104L573.192 213.714ZM565.173 214.493L564.979 212.503L560.97 212.892L561.164 214.883L565.173 214.493ZM557.154 215.272L556.961 213.281L552.951 213.671L553.145 215.661L557.154 215.272ZM549.135 216.051L548.942 214.06L544.933 214.45L545.126 216.44L549.135 216.051ZM541.117 216.83L540.924 214.839L536.914 215.229L537.108 217.219L541.117 216.83ZM533.098 217.609L532.905 215.618L528.896 216.007L529.089 217.998L533.098 217.609ZM525.08 218.387L524.886 216.397L520.877 216.786L521.07 218.777L525.08 218.387ZM517.061 219.166L516.868 217.176L512.858 217.565L513.052 219.556L517.061 219.166ZM509.042 219.945L508.849 217.954L504.84 218.344L505.033 220.335L509.042 219.945ZM501.024 220.724L500.83 218.733L496.821 219.123L497.014 221.113L501.024 220.724ZM493.005 221.503L492.812 219.512L488.802 219.902L488.996 221.892L493.005 221.503ZM484.986 222.282L484.793 220.291L480.784 220.68L480.977 222.671L484.986 222.282ZM476.968 223.061L476.774 221.07L472.765 221.459L472.958 223.45L476.968 223.061ZM468.949 223.839L468.756 221.849L464.746 222.238L464.94 224.229L468.949 223.839Z" fill="white"/>
</svg>
